<?xml version="1.0" encoding="UTF-8" standalone="no"?> <svg xmlns="http://www.w3.org/2000/svg" width="511.918" height="459.828" viewBox="0 0 511.918 459.828">
  <g id="Layer_x0020_1" transform="translate(-194.04 -220.085)">
    <path id="Path_90" data-name="Path 90" d="M222.73,383.955a8,8,0,0,1-6.937-11.968l74.224-129.826a8,8,0,0,1,6.946-4.03h55.315a8,8,0,0,1,0,16H301.6l-71.92,125.794a8,8,0,0,1-6.953,4.03Z" fill="gray" fill-rule="evenodd"/>
    <path id="Path_91" data-name="Path 91" d="M677.262,383.955a8,8,0,0,1-6.953-4.03L598.388,254.131H547.714a8,8,0,1,1,0-16h55.315a8.005,8.005,0,0,1,6.945,4.03L684.2,371.983a8.005,8.005,0,0,1-6.933,11.973Z" fill="gray" fill-rule="evenodd"/>
    <path id="Path_92" data-name="Path 92" d="M623.083,679.913H271.337a8,8,0,0,1-7.9-6.745L227.089,444.041H672.525l-41.568,229.3a8.008,8.008,0,0,1-7.874,6.57ZM332.744,643.106a8,8,0,0,1-8-8V488.846a8,8,0,1,1,16,0V635.109a7.994,7.994,0,0,1-8,8Zm58.628,0a8,8,0,0,1-8-8V488.846a8,8,0,1,1,16,0V635.109a8,8,0,0,1-8,8Zm58.623,0a8,8,0,0,1-8-8V488.846a8,8,0,1,1,16,0V635.109a8,8,0,0,1-8,8Zm58.629,0a8,8,0,0,1-8-8V488.846a8,8,0,1,1,16,0V635.109a7.994,7.994,0,0,1-8,8Zm58.628,0a8,8,0,0,1-8-8V488.846a8,8,0,1,1,16,0V635.109a8,8,0,0,1-8,8Z" fill="#333" fill-rule="evenodd"/>
    <path id="Path_93" data-name="Path 93" d="M675.666,434.042H224.324a30.319,30.319,0,0,1-30.284-30.286v-5.574A30.321,30.321,0,0,1,224.324,367.9H675.666a30.323,30.323,0,0,1,30.292,30.286v5.58a30.325,30.325,0,0,1-30.292,30.282Z" fill="#333" fill-rule="evenodd"/>
    <path id="Path_94" data-name="Path 94" d="M506.29,275.74H393.7a24.581,24.581,0,0,1-24.55-24.55v-6.554a24.581,24.581,0,0,1,24.55-24.55H506.286a24.581,24.581,0,0,1,24.55,24.55v6.554a24.58,24.58,0,0,1-24.547,24.55Z" fill="gray" fill-rule="evenodd"/>
  </g>
</svg>
